<?xml version="1.0" standalone="no"?>
<!DOCTYPE svg PUBLIC "-//W3C//DTD SVG 20010904//EN"
 "http://www.w3.org/TR/2001/REC-SVG-20010904/DTD/svg10.dtd">
<svg version="1.0" xmlns="http://www.w3.org/2000/svg"
 width="300.000000pt" height="149.000000pt" viewBox="0 0 300.000000 149.000000"
 preserveAspectRatio="xMidYMid meet">
<metadata>
Created by potrace 1.10, written by Peter Selinger 2001-2011
</metadata>
<g transform="translate(0.000000,149.000000) scale(0.100000,-0.100000)"
fill="#000000" stroke="none">
<path d="M23 1483 c9 -2 25 -2 35 0 9 3 1 5 -18 5 -19 0 -27 -2 -17 -5z"/>
<path d="M122 1483 c27 -2 69 -2 96 0 26 2 4 3 -48 3 -52 0 -74 -1 -48 -3z"/>
<path d="M278 1483 c6 -2 18 -2 25 0 6 3 1 5 -13 5 -14 0 -19 -2 -12 -5z"/>
<path d="M1448 1465 c2 -14 8 -25 13 -25 5 0 8 11 7 25 -1 14 -8 25 -14 25 -7
0 -9 -10 -6 -25z"/>
<path d="M548 1473 c7 -3 16 -2 19 1 4 3 -2 6 -13 5 -11 0 -14 -3 -6 -6z"/>
<path d="M2495 1465 c-21 -15 -22 -15 33 -15 11 0 8 23 -3 27 -6 2 -20 -3 -30
-12z"/>
<path d="M57 1453 c18 -2 50 -2 70 0 21 2 7 4 -32 4 -38 0 -55 -2 -38 -4z"/>
<path d="M2090 1439 c-98 -7 -182 -18 -189 -25 -2 -2 4 -4 15 -4 18 0 19 -5
13 -75 -3 -41 -8 -77 -11 -80 -3 -3 -43 -10 -89 -15 -46 -5 -113 -12 -149 -17
-36 -4 -84 -8 -107 -8 -24 0 -43 -3 -43 -7 0 -5 -11 -8 -25 -8 -14 0 -25 5
-25 10 0 6 -5 10 -11 10 -5 0 -8 -4 -5 -9 7 -11 -31 -18 -164 -31 -127 -12
-215 -21 -255 -25 -63 -7 -132 -15 -180 -20 -27 -2 -66 -7 -85 -10 -19 -2 -60
-7 -90 -10 -30 -3 -71 -8 -90 -10 -43 -5 -92 -11 -290 -30 -269 -26 -310 -32
-310 -47 0 -5 8 -7 18 -4 9 2 49 8 87 11 158 14 1001 104 1215 130 25 3 128
14 230 25 213 23 336 38 366 45 19 4 22 12 23 77 1 40 5 76 10 81 5 5 29 13
53 18 68 12 368 21 418 12 l45 -8 3 -57 3 -57 47 5 c26 3 143 16 260 28 193
21 234 29 221 40 -4 3 -83 -4 -234 -23 -73 -10 -180 -21 -223 -25 -14 -1 -17
7 -15 54 2 48 1 52 -8 28 -13 -34 -21 -35 -34 -7 -6 12 -27 27 -47 34 -39 13
-191 15 -348 4z"/>
<path d="M1685 1408 c-60 -5 -122 -7 -137 -5 -16 2 -28 -1 -28 -8 0 -7 21 -9
73 -4 39 4 105 8 145 8 41 1 72 5 72 11 0 6 -3 9 -7 9 -5 -1 -57 -6 -118 -11z"/>
<path d="M2100 1390 c-62 -5 -32 -7 108 -7 105 1 186 4 180 9 -15 9 -160 8
-288 -2z"/>
<path d="M2410 1396 c0 -2 9 -6 20 -9 11 -3 20 -1 20 4 0 5 -9 9 -20 9 -11 0
-20 -2 -20 -4z"/>
<path d="M2418 1329 c-3 -30 0 -39 14 -42 11 -3 18 -15 18 -29 0 -12 3 -34 7
-47 5 -18 3 -22 -6 -16 -10 5 -11 2 -6 -14 9 -31 -28 -42 -170 -51 l-120 -8
120 3 c66 1 137 8 158 14 35 11 37 14 37 52 0 22 -5 71 -11 108 -13 76 -35 92
-41 30z m19 -16 c-3 -10 -5 -4 -5 12 0 17 2 24 5 18 2 -7 2 -21 0 -30z"/>
<path d="M398 1353 c7 -3 16 -2 19 1 4 3 -2 6 -13 5 -11 0 -14 -3 -6 -6z"/>
<path d="M2157 1353 c-81 -2 -126 -7 -122 -13 4 -6 10 -8 15 -5 5 3 19 1 30
-5 13 -7 20 -7 20 0 0 16 70 12 76 -5 8 -19 24 -19 24 0 0 10 12 14 43 13 24
0 62 3 85 7 40 6 42 6 42 -18 0 -20 -6 -27 -30 -32 -16 -4 -33 -11 -37 -17 -4
-8 0 -9 13 -4 33 13 68 14 83 2 12 -9 12 -8 3 11 -7 12 -12 33 -12 47 0 25 -2
26 -52 24 -29 -1 -111 -4 -181 -5z"/>
<path d="M1980 1308 c0 -24 -3 -53 -6 -66 -6 -20 -4 -21 17 -13 13 4 26 16 28
26 2 13 -1 16 -13 12 -14 -5 -16 0 -14 28 1 21 7 35 15 35 7 0 13 5 13 10 0 6
-9 10 -20 10 -17 0 -20 -7 -20 -42z"/>
<path d="M2050 1310 c-8 -5 -13 -10 -10 -11 3 0 13 -2 22 -4 11 -2 15 2 11 11
-6 16 -4 16 -23 4z"/>
<path d="M2170 1273 c0 -7 -7 -13 -15 -13 -8 0 -15 -4 -15 -10 0 -11 24 -3 58
18 20 13 25 13 41 -2 12 -11 21 -13 25 -7 4 5 -2 15 -12 20 -26 14 -82 9 -82
-6z"/>
<path d="M2066 1265 c-4 -11 1 -15 17 -14 12 0 16 3 9 6 -6 2 -10 9 -6 14 3 5
1 9 -4 9 -6 0 -12 -7 -16 -15z"/>
<path d="M1944 1225 c-3 -25 -4 -51 -1 -59 7 -18 61 -33 142 -40 l60 -5 -55
10 c-30 5 -73 15 -95 22 l-40 12 3 53 c3 64 -4 68 -14 7z"/>
<path d="M1466 1245 c-3 -8 -1 -15 4 -15 6 0 10 7 10 15 0 8 -2 15 -4 15 -2 0
-6 -7 -10 -15z"/>
<path d="M2028 1193 c12 -2 30 -2 40 0 9 3 -1 5 -23 4 -22 0 -30 -2 -17 -4z"/>
<path d="M2098 1193 c7 -3 16 -2 19 1 4 3 -2 6 -13 5 -11 0 -14 -3 -6 -6z"/>
<path d="M2205 1189 c39 -4 74 -4 78 0 5 5 -27 9 -70 9 l-78 0 70 -9z"/>
<path d="M2301 1197 c2 -3 31 -8 64 -11 36 -4 55 -3 47 2 -13 8 -121 17 -111
9z"/>
<path d="M2972 1138 c-7 -7 -12 -20 -12 -30 0 -15 3 -16 13 -7 7 7 14 21 14
31 2 21 1 22 -15 6z"/>
<path d="M2459 1129 c0 -8 -2 -21 -5 -29 -16 -61 -22 -113 -15 -132 6 -16 11
3 21 71 7 50 10 94 6 98 -3 3 -6 0 -7 -8z"/>
<path d="M2863 1047 c-23 -35 -47 -76 -54 -91 -12 -26 -16 -28 -61 -24 -59 6
-64 -7 -7 -16 49 -8 61 0 95 63 14 25 36 65 50 89 38 63 24 51 -23 -21z"/>
<path d="M2180 1081 c0 -5 7 -12 16 -15 14 -5 15 -4 4 9 -14 17 -20 19 -20 6z"/>
<path d="M2980 1069 c-7 -11 -10 -23 -7 -25 2 -2 9 7 15 21 14 30 7 33 -8 4z"/>
<path d="M1948 1022 c2 -32 8 -73 12 -92 7 -27 8 -14 8 52 0 57 -5 88 -13 91
-8 4 -10 -11 -7 -51z"/>
<path d="M1990 1054 c0 -14 4 -23 10 -19 6 3 10 15 10 26 0 10 -4 19 -10 19
-5 0 -10 -12 -10 -26z"/>
<path d="M2649 1044 c-13 -15 -18 -25 -10 -22 13 4 49 48 39 48 -2 0 -15 -12
-29 -26z"/>
<path d="M2717 997 l-38 -59 -44 7 c-29 4 -45 3 -45 -4 0 -19 91 -13 107 7 30
37 64 94 61 101 -2 5 -20 -19 -41 -52z"/>
<path d="M979 1045 c-3 -2 -63 -11 -135 -20 -71 -8 -152 -19 -179 -24 -132
-25 -245 -54 -304 -78 -69 -28 -201 -102 -201 -114 0 -4 7 -12 15 -19 21 -18
64 0 133 56 80 66 124 84 205 84 37 0 67 -2 67 -3 0 -2 -13 -28 -29 -57 -24
-44 -27 -57 -19 -81 10 -29 28 -39 28 -16 0 8 3 8 9 -2 5 -8 19 -12 35 -9 31
6 40 -3 57 -61 23 -78 77 -89 158 -31 48 35 68 70 72 125 4 59 8 60 45 18 33
-37 34 -37 49 -18 31 39 45 145 29 224 -6 27 -22 40 -35 26z m20 -103 c-1 -48
-4 -98 -8 -112 -11 -41 -35 -30 -45 20 -5 25 -13 48 -18 51 -5 3 -10 20 -10
38 -1 29 -2 30 -15 12 -10 -16 -11 -25 -1 -46 9 -19 9 -28 0 -37 -9 -9 -12 -6
-12 13 0 42 -13 52 -61 46 -60 -7 -145 -41 -141 -56 1 -7 -2 -10 -8 -6 -5 3
-19 1 -31 -6 -17 -9 -24 -8 -31 2 -8 11 -9 11 -5 -2 6 -17 -28 -43 -43 -34 -6
4 -10 1 -10 -5 0 -6 -4 -9 -10 -5 -13 8 -1 35 15 29 9 -4 11 2 8 20 -6 29 33
58 47 36 6 -9 10 -6 15 9 3 11 14 22 23 22 39 4 48 6 62 12 8 4 56 15 105 26
l90 19 12 -27 c7 -15 13 -19 13 -11 4 49 33 96 51 84 5 -3 9 -44 8 -92z m-274
32 c-27 -9 -65 -22 -84 -31 -32 -13 -33 -13 -21 2 12 14 10 15 -13 6 -15 -6
-29 -6 -32 -2 -5 9 121 38 170 39 24 1 20 -2 -20 -14z m151 -81 c11 -43 -13
-164 -38 -190 -11 -12 -41 -30 -64 -39 -58 -22 -68 -12 -90 81 -17 72 -17 75
2 96 28 31 123 76 166 78 11 1 20 -9 24 -26z m-626 -58 c0 -2 -10 -9 -22 -15
-22 -11 -22 -10 -4 4 21 17 26 19 26 11z m400 -24 c0 -24 -3 -28 -20 -24 -11
3 -20 13 -20 22 0 14 2 14 10 1 8 -12 10 -11 10 8 0 12 5 22 10 22 6 0 10 -13
10 -29z"/>
<path d="M853 825 c0 -22 2 -30 4 -17 2 12 2 30 0 40 -3 9 -5 -1 -4 -23z"/>
<path d="M2988 1025 c-6 -30 -3 -43 8 -33 3 4 4 19 2 35 l-3 28 -7 -30z"/>
<path d="M2939 976 l-23 -56 -55 -1 c-43 -1 -50 -3 -31 -9 14 -4 39 -8 56 -9
28 -1 33 4 57 61 15 34 25 63 23 65 -2 2 -14 -21 -27 -51z"/>
<path d="M2565 1010 c-4 -6 8 -10 30 -10 22 0 34 4 30 10 -3 6 -17 10 -30 10
-13 0 -27 -4 -30 -10z"/>
<path d="M2530 975 c-7 -8 -23 -15 -36 -15 -13 0 -24 -4 -24 -10 0 -5 11 -10
24 -10 14 0 28 5 31 10 3 6 19 10 35 10 16 0 31 4 34 9 4 5 -3 7 -15 4 -12 -3
-24 -1 -28 6 -6 9 -11 8 -21 -4z"/>
<path d="M1992 960 c0 -14 2 -19 5 -12 2 6 2 18 0 25 -3 6 -5 1 -5 -13z"/>
<path d="M2960 965 c-10 -12 -9 -16 6 -22 11 -3 22 -11 26 -17 5 -8 8 -7 8 1
0 6 -4 15 -10 18 -5 3 -10 11 -10 16 0 6 5 7 12 3 7 -4 8 -3 4 4 -10 16 -21
15 -36 -3z"/>
<path d="M1800 943 c0 -21 3 -24 9 -14 5 8 7 20 4 28 -8 21 -13 15 -13 -14z"/>
<path d="M2428 916 c-3 -14 -2 -23 3 -20 4 2 7 -8 6 -22 -1 -15 3 -29 10 -31
8 -3 10 9 6 39 -7 52 -19 68 -25 34z"/>
<path d="M1833 896 c4 -12 105 -31 114 -22 11 10 -1 15 -60 24 -41 7 -57 6
-54 -2z"/>
<path d="M2935 900 c3 -5 19 -10 36 -10 16 0 29 5 29 10 0 6 -16 10 -36 10
-21 0 -33 -4 -29 -10z"/>
<path d="M2180 880 c-113 -3 -200 -7 -195 -9 25 -7 399 0 413 9 13 7 14 9 2 8
-8 -2 -107 -5 -220 -8z"/>
<path d="M2468 873 c7 -3 16 -2 19 1 4 3 -2 6 -13 5 -11 0 -14 -3 -6 -6z"/>
<path d="M2506 861 c-4 -5 3 -7 14 -4 23 6 26 13 6 13 -8 0 -17 -4 -20 -9z"/>
<path d="M2551 866 c6 -7 171 -30 279 -40 30 -3 82 -8 115 -12 33 -3 57 -3 53
1 -3 3 -85 15 -182 25 -97 10 -198 22 -224 26 -26 3 -44 4 -41 0z"/>
<path d="M1987 842 c13 -9 64 -12 193 -10 96 1 193 -1 215 -5 l40 -7 -43 15
c-58 19 -431 26 -405 7z"/>
<path d="M1952 815 c3 -32 38 -61 83 -70 21 -4 17 -1 -14 12 -26 11 -45 25
-47 36 -3 20 -3 20 56 6 52 -13 269 -13 320 -1 21 5 -20 7 -107 4 -142 -5
-253 7 -281 31 -11 9 -13 5 -10 -18z"/>
<path d="M2460 815 c0 -7 -7 -15 -15 -19 -8 -3 -15 -11 -15 -17 0 -8 7 -5 19
5 18 16 31 16 253 -13 128 -17 248 -33 266 -36 23 -4 32 -2 32 8 0 11 -53 20
-232 42 -128 15 -250 31 -270 35 -28 6 -38 5 -38 -5z"/>
<path d="M2055 766 c34 -17 55 -19 73 -8 8 6 0 9 -20 9 -18 0 -44 3 -58 7 -20
5 -20 4 5 -8z"/>
<path d="M2340 765 c-11 -13 -10 -14 4 -9 9 3 16 10 16 15 0 13 -6 11 -20 -6z"/>
<path d="M2168 753 c6 -2 18 -2 25 0 6 3 1 5 -13 5 -14 0 -19 -2 -12 -5z"/>
<path d="M2396 744 c-9 -9 -14 -19 -11 -22 3 -3 13 2 22 11 9 9 14 19 11 22
-3 3 -13 -2 -22 -11z"/>
<path d="M1960 713 c1 -37 20 -60 56 -68 28 -5 28 -5 4 5 -24 11 -42 33 -46
58 -1 6 2 10 7 6 5 -3 7 -10 4 -15 -4 -5 -1 -9 4 -9 15 0 14 23 -1 38 -19 19
-28 14 -28 -15z"/>
<path d="M2088 733 c7 -3 16 -2 19 1 4 3 -2 6 -13 5 -11 0 -14 -3 -6 -6z"/>
<path d="M210 721 c0 -10 103 -66 140 -75 24 -7 25 -7 5 9 -20 16 -129 75
-140 75 -3 0 -5 -4 -5 -9z"/>
<path d="M2020 720 c8 -5 22 -9 30 -9 10 0 8 3 -5 9 -27 12 -43 12 -25 0z"/>
<path d="M2188 723 c23 -2 59 -2 80 0 20 2 1 4 -43 4 -44 0 -61 -2 -37 -4z"/>
<path d="M2416 713 c-7 -22 -3 -50 9 -60 4 -4 5 -2 1 5 -4 6 -3 12 3 12 5 0 9
14 9 30 -1 33 -14 40 -22 13z"/>
<path d="M2088 703 c6 -2 18 -2 25 0 6 3 1 5 -13 5 -14 0 -19 -2 -12 -5z"/>
<path d="M2288 703 c6 -2 18 -2 25 0 6 3 1 5 -13 5 -14 0 -19 -2 -12 -5z"/>
<path d="M2158 693 c12 -2 30 -2 40 0 9 3 -1 5 -23 4 -22 0 -30 -2 -17 -4z"/>
<path d="M2238 693 c6 -2 18 -2 25 0 6 3 1 5 -13 5 -14 0 -19 -2 -12 -5z"/>
<path d="M2010 681 c0 -5 7 -12 16 -15 14 -5 15 -4 4 9 -14 17 -20 19 -20 6z"/>
<path d="M2335 680 c-17 -7 -15 -9 12 -9 17 -1 35 4 38 9 7 12 -22 12 -50 0z"/>
<path d="M2062 665 c9 -10 21 -16 28 -13 7 2 -1 10 -16 17 -27 12 -28 11 -12
-4z"/>
<path d="M2498 659 c-2 -16 -51 -50 -183 -129 -99 -59 -261 -156 -360 -215
-181 -108 -217 -128 -335 -193 -63 -35 -119 -72 -107 -72 8 0 74 36 167 90
224 130 817 485 832 497 9 8 14 21 11 29 -8 21 -21 17 -25 -7z"/>
<path d="M2243 663 c15 -2 37 -2 50 0 12 2 0 4 -28 4 -27 0 -38 -2 -22 -4z"/>
<path d="M2118 648 c-10 -7 -10 -9 2 -5 8 2 32 -2 53 -9 20 -7 37 -10 37 -6 0
13 -78 30 -92 20z"/>
<path d="M2320 644 l-45 -14 48 5 c50 5 104 25 62 23 -11 0 -40 -7 -65 -14z"/>
<path d="M388 629 c-38 -21 -20 -35 45 -35 63 1 79 8 70 33 -7 18 -39 17 -47
-2 -3 -8 -12 -15 -21 -15 -8 0 -15 7 -15 15 0 17 -8 18 -32 4z"/>
<path d="M930 629 c0 -7 -18 -10 -50 -7 -28 1 -50 0 -50 -4 0 -11 105 -14 112
-3 11 14 10 25 -2 25 -5 0 -10 -5 -10 -11z"/>
<path d="M95 622 c-24 -17 -88 -119 -91 -144 -3 -26 -1 -28 30 -28 22 0 33 -5
33 -14 0 -11 -5 -12 -16 -6 -10 5 -23 3 -34 -5 -25 -18 -21 -25 17 -25 32 0
66 24 52 37 -3 3 3 12 14 20 11 8 20 21 20 29 0 8 3 14 8 14 4 0 15 14 25 31
20 36 23 59 5 41 -16 -16 -71 -16 -65 1 2 6 21 12 44 13 45 1 63 9 63 30 0 10
-13 14 -47 14 -27 0 -53 -4 -58 -8z m45 -81 c0 -16 -22 -24 -30 -11 -5 9 -9 9
-14 1 -4 -6 -19 -11 -34 -11 -25 0 -25 1 -6 15 21 16 84 20 84 6z m-70 -56
c-13 -16 -50 -21 -50 -7 0 15 13 22 38 22 21 0 22 -2 12 -15z m35 -4 c-3 -6
-11 -11 -17 -11 -6 0 -6 6 2 15 14 17 26 13 15 -4z"/>
<path d="M214 583 c-15 -27 -49 -85 -76 -129 -26 -45 -48 -85 -48 -88 0 -10
110 -7 131 5 11 6 18 17 15 24 -2 7 2 16 11 19 9 4 13 13 9 22 -4 11 1 22 14
31 11 8 18 19 15 24 -4 5 1 16 9 25 9 9 14 20 11 25 -4 5 -1 9 4 9 6 0 11 7
11 15 0 8 5 24 12 35 7 10 8 23 4 27 -5 4 -11 2 -13 -4 -3 -7 -11 -13 -18 -13
-7 0 -16 6 -18 13 -4 10 -6 10 -6 0 -1 -7 -10 -13 -22 -13 -11 0 -17 5 -14 10
3 6 4 10 1 10 -3 0 -17 -21 -32 -47z m26 -3 c0 -5 -5 -10 -11 -10 -5 0 -7 5
-4 10 3 6 8 10 11 10 2 0 4 -4 4 -10z m70 -2 c0 -4 -13 -8 -30 -8 -16 0 -30 4
-30 8 0 5 14 9 30 9 17 0 30 -4 30 -9z m-25 -37 c-10 -9 -65 -10 -65 -1 0 6
16 10 35 8 19 -1 32 -4 30 -7z m-18 -46 c0 -11 -11 -15 -41 -15 -38 1 -40 2
-22 15 26 20 63 19 63 0z m-24 -50 c3 -6 -15 -10 -44 -11 -34 -1 -49 3 -49 12
0 15 87 15 93 -1z m-23 -45 c0 -5 -6 -10 -12 -11 -7 0 -22 -2 -33 -4 -11 -2
-31 -1 -45 2 l-25 7 25 7 c38 11 90 10 90 -1z"/>
<path d="M228 493 c7 -3 16 -2 19 1 4 3 -2 6 -13 5 -11 0 -14 -3 -6 -6z"/>
<path d="M514 595 c-1 -38 13 -48 18 -13 5 36 25 32 22 -4 l-3 -33 11 33 c9
27 9 35 -3 43 -29 18 -44 10 -45 -26z"/>
<path d="M1055 620 c107 -12 304 -21 235 -10 -30 5 -111 11 -180 14 -95 3
-108 3 -55 -4z"/>
<path d="M1440 618 c0 -5 46 -8 103 -8 56 0 117 -4 135 -9 18 -6 30 -6 27 -1
-14 23 -265 39 -265 18z"/>
<path d="M2098 623 c7 -3 16 -2 19 1 4 3 -2 6 -13 5 -11 0 -14 -3 -6 -6z"/>
<path d="M2386 621 c-3 -5 -45 -9 -93 -10 -49 -1 -89 -6 -91 -11 -2 -6 -23
-10 -47 -10 -45 0 -95 -17 -95 -32 0 -4 9 -8 21 -8 11 0 18 4 15 9 -8 13 19
21 70 21 24 0 44 5 44 10 0 6 12 10 26 10 14 0 23 -4 20 -8 -2 -4 4 -14 16
-21 11 -7 17 -8 14 -3 -5 8 25 18 71 24 13 1 51 38 40 38 -3 0 -8 -4 -11 -9z"/>
<path d="M9 613 c-1 -5 -3 -24 -5 -43 -3 -30 -2 -32 8 -15 6 11 17 24 25 28
20 12 16 37 -7 37 -11 0 -21 -3 -21 -7z"/>
<path d="M2050 610 c19 -13 30 -13 30 0 0 6 -10 10 -22 10 -19 0 -20 -2 -8
-10z"/>
<path d="M1346 594 c-9 -24 -7 -34 7 -28 14 5 21 44 7 44 -4 0 -11 -7 -14 -16z"/>
<path d="M1390 590 c-9 -16 -8 -20 5 -20 8 0 14 6 13 13 -2 7 5 11 17 9 16 -2
17 -1 5 7 -21 15 -28 14 -40 -9z"/>
<path d="M1495 590 c-25 -7 -22 -8 23 -7 28 1 52 -2 52 -6 0 -4 27 -6 60 -5
71 4 81 18 13 18 -27 0 -64 2 -83 4 -19 3 -48 1 -65 -4z"/>
<path d="M471 583 c-1 -8 -17 -13 -45 -13 l-44 0 -28 -72 c-15 -40 -33 -84
-41 -98 l-13 -25 56 -3 c62 -3 84 1 84 18 0 8 -19 10 -55 7 -31 -2 -58 -1 -60
3 -7 11 12 16 70 19 54 3 65 7 65 22 0 6 -4 7 -10 4 -5 -3 -10 -1 -10 5 0 6 7
13 15 16 8 4 15 12 15 19 0 10 -11 12 -40 9 -22 -3 -46 -2 -52 2 -18 11 41 25
61 15 10 -6 22 -3 33 8 15 15 12 16 -39 13 -43 -3 -54 -1 -51 9 3 8 24 15 54
17 27 2 54 8 59 14 7 8 6 9 -2 4 -6 -3 -14 0 -16 6 -4 10 -6 10 -6 1z m-43
-125 c-5 -15 -42 -22 -64 -14 -25 10 -5 26 32 26 24 0 34 -4 32 -12z"/>
<path d="M920 580 c24 -9 240 -37 610 -80 168 -20 227 -24 218 -15 -4 5 -19 7
-138 19 -43 5 -450 53 -675 81 -33 4 -36 3 -15 -5z"/>
<path d="M1713 555 c-18 -19 -16 -25 6 -25 11 0 21 -6 24 -12 2 -7 4 2 3 19
-1 35 -13 41 -33 18z"/>
<path d="M1761 554 c0 -11 3 -14 6 -6 3 7 2 16 -1 19 -3 4 -6 -2 -5 -13z"/>
<path d="M495 493 c-10 -32 -24 -78 -32 -102 -7 -24 -12 -46 -9 -48 3 -3 17
35 31 83 37 124 37 124 32 124 -3 0 -13 -26 -22 -57z"/>
<path d="M567 543 c-16 -15 -5 -31 31 -41 32 -10 286 -146 749 -401 73 -40
137 -70 142 -66 16 9 13 25 -3 19 -8 -3 -167 77 -353 179 -186 101 -357 194
-381 206 -26 13 -40 26 -36 33 4 6 3 8 -4 5 -14 -9 -43 3 -36 14 3 5 -1 6 -9
3 -8 -3 -17 2 -20 10 -4 9 -13 13 -21 10 -8 -3 -19 3 -26 15 -11 22 -22 26
-33 14z"/>
<path d="M1927 498 c-54 -28 -96 -53 -93 -56 3 -2 17 3 30 12 14 9 32 16 39
16 8 0 19 6 25 13 6 6 33 21 61 32 28 11 51 23 51 27 0 14 -12 9 -113 -44z"/>
<path d="M516 422 l-27 -117 -107 2 c-78 1 -110 -2 -117 -12 -7 -8 -54 -17
-125 -23 l-115 -11 120 4 c66 3 132 5 148 5 17 0 27 5 27 15 0 11 10 15 38 13
36 -1 36 -1 5 -5 -18 -2 -33 -8 -33 -12 0 -5 12 -6 26 -3 24 4 26 3 19 -19 -7
-21 -6 -22 8 -11 9 8 19 22 22 33 7 21 45 27 45 7 0 -7 -9 -28 -20 -45 -17
-29 -25 -33 -62 -34 -24 0 -50 -2 -58 -3 -8 -2 -60 -6 -115 -10 -55 -4 -109
-8 -120 -11 -11 -2 -33 -4 -49 -4 -28 -1 -29 -2 -10 -16 10 -8 24 -14 29 -15
6 0 3 5 -5 10 -9 6 -10 10 -3 10 6 0 15 -5 18 -10 4 -6 12 -7 18 -3 22 13 106
20 112 9 3 -7 7 -7 11 2 3 6 15 12 25 12 14 0 18 -4 13 -12 -5 -9 -2 -8 9 1
11 9 32 12 62 9 29 -4 45 -2 45 5 0 7 4 7 12 -1 6 -6 9 -14 7 -17 -3 -3 -59
-7 -124 -10 -65 -3 -122 -8 -127 -11 -4 -3 -8 0 -8 5 0 6 -5 11 -11 11 -5 0
-7 -4 -4 -10 3 -5 -9 -9 -30 -8 -20 1 -41 -4 -48 -11 -10 -10 5 -11 73 -7 47
3 135 8 195 12 61 3 117 10 127 15 29 15 94 169 118 277 12 57 20 105 18 108
-3 2 -17 -49 -32 -114z m-209 -138 c-3 -3 -12 -4 -19 -1 -8 3 -5 6 6 6 11 1
17 -2 13 -5z m103 -110 c0 -8 -4 -12 -10 -9 -5 3 -10 10 -10 16 0 5 5 9 10 9
6 0 10 -7 10 -16z"/>
<path d="M2228 523 c7 -3 16 -2 19 1 4 3 -2 6 -13 5 -11 0 -14 -3 -6 -6z"/>
<path d="M551 464 c0 -11 3 -14 6 -6 3 7 2 16 -1 19 -3 4 -6 -2 -5 -13z"/>
<path d="M1558 312 c-142 -70 -257 -130 -258 -133 0 -3 17 -13 38 -23 l37 -17
-22 22 -23 23 217 108 c119 59 221 108 228 108 7 0 20 9 30 20 10 11 16 20 14
19 -2 0 -120 -58 -261 -127z"/>
<path d="M45 381 c-3 -6 -15 -11 -26 -11 -10 0 -19 -4 -19 -10 0 -5 6 -10 13
-10 18 0 53 27 45 35 -3 3 -9 2 -13 -4z"/>
<path d="M259 368 c4 -13 6 -29 4 -35 -3 -7 1 -13 7 -13 7 0 10 8 7 20 -3 10
0 21 7 23 6 2 1 9 -11 16 -21 11 -22 10 -14 -11z"/>
<path d="M118 343 c12 -2 30 -2 40 0 9 3 -1 5 -23 4 -22 0 -30 -2 -17 -4z"/>
<path d="M190 326 c0 -9 40 -13 46 -5 3 5 -6 9 -20 9 -14 0 -26 -2 -26 -4z"/>
<path d="M60 290 l-65 -7 75 0 c41 -1 98 2 125 7 l50 7 -60 0 c-33 0 -89 -3
-125 -7z"/>
<path d="M1380 143 c0 -13 70 -53 92 -53 15 1 -20 23 -41 26 -8 2 -18 9 -22
16 -5 7 -9 9 -9 3 0 -5 -5 -3 -10 5 -6 10 -10 11 -10 3z"/>
<path d="M379 84 l-24 -27 26 17 c14 9 28 14 31 11 3 -3 8 1 11 10 10 24 -17
18 -44 -11z"/>
<path d="M154 48 c-3 -4 -22 -6 -42 -4 -20 2 -46 -1 -57 -5 -28 -12 215 -2
246 10 18 7 2 9 -59 8 -46 -1 -86 -5 -88 -9z"/>
</g>
</svg>
